<?xml version="1.0" standalone="no"?>
<!DOCTYPE svg PUBLIC "-//W3C//DTD SVG 20010904//EN"
 "http://www.w3.org/TR/2001/REC-SVG-20010904/DTD/svg10.dtd">
<svg version="1.0" xmlns="http://www.w3.org/2000/svg"
 width="1300.000000pt" height="1300.000000pt" viewBox="0 0 1300.000000 1300.000000"
 preserveAspectRatio="xMidYMid meet">
<metadata>
Created by potrace 1.11, written by Peter Selinger 2001-2013
</metadata>
<g transform="translate(0.000000,1300.000000) scale(0.100000,-0.100000)"
fill="#000000" stroke="none">
<path d="M0 6500 l0 -6500 6500 0 6500 0 0 6500 0 6500 -6500 0 -6500 0 0
-6500z m8938 3815 l2 -415 -2445 0 -2445 0 0 413 c0 228 2 416 4 418 2 2 1102
3 2443 2 l2438 -2 3 -416z m-3358 -513 l925 -2 0 -2347 c0 -1554 -3 -2350 -10
-2355 -16 -12 -855 -10 -855 2 0 6 34 64 75 129 41 65 75 123 75 129 0 6 4 12
8 14 8 3 72 100 112 169 18 31 246 397 305 489 23 36 85 135 138 221 l97 157
0 992 0 992 -27 50 c-25 47 -34 54 -118 92 -91 41 -593 293 -825 413 -69 36
-226 117 -349 180 -265 135 -265 135 -361 232 -73 74 -132 155 -238 332 -74
124 -77 114 30 114 51 -1 509 -2 1018 -3z m2883 -59 c-3 -7 -6 -13 -8 -13 -2
0 -5 6 -8 13 -3 8 1 14 8 14 7 0 11 -6 8 -14z m-1946 -700 c-1 -131 -2 -24 -2
237 0 261 1 368 2 238 2 -131 2 -345 0 -475z m1866 544 c3 -8 -1 -14 -9 -14
-8 0 -14 6 -14 14 0 7 4 13 9 13 5 0 11 -6 14 -13z m-1866 -999 c-3 -8 -6 -5
-6 6 -1 11 2 17 5 13 3 -3 4 -12 1 -19z m52 -117 c10 -7 11 -13 2 -30 -15 -26
-21 -27 -14 -1 3 11 0 20 -6 20 -6 0 -11 5 -11 10 0 12 10 13 29 1z m-266
-1881 c-3 -12 -8 -19 -11 -16 -5 6 5 36 12 36 2 0 2 -9 -1 -20z m18 -23 c-10
-9 -11 -8 -5 6 3 10 9 15 12 12 3 -3 0 -11 -7 -18z m-17 -192 c-9 -14 -18 -25
-20 -25 -2 0 2 11 8 25 6 14 15 25 20 25 5 0 1 -11 -8 -25z m-70 -70 c-3 -6
-11 -12 -18 -12 -8 0 -12 6 -10 12 3 6 11 12 18 12 8 0 12 -6 10 -12z m336
-40 c0 -17 -2 -17 -10 -5 -5 8 -10 24 -10 35 0 17 2 17 10 5 5 -8 10 -24 10
-35z m-358 -17 c-8 -8 -9 -4 -5 13 4 13 8 18 11 10 2 -7 -1 -18 -6 -23z m402
6 c3 -8 2 -12 -4 -9 -6 3 -10 10 -10 16 0 14 7 11 14 -7z m-442 -26 c-9 -9
-15 -9 -24 0 -9 9 -7 12 12 12 19 0 21 -3 12 -12z m345 -50 c-2 -13 -4 -5 -4
17 -1 22 1 32 4 23 2 -10 2 -28 0 -40z m-384 -33 c-3 -9 -8 -14 -10 -11 -3 3
-2 9 2 15 9 16 15 13 8 -4z m7 -33 c0 -5 -7 -17 -15 -28 -14 -18 -14 -17 -4 9
12 27 19 34 19 19z m-77 -74 c-10 -21 -10 -21 -9 9 1 19 5 28 10 23 6 -6 5
-18 -1 -32z m35 17 c-3 -3 -9 2 -12 12 -6 14 -5 15 5 6 7 -7 10 -15 7 -18z
m419 -87 c-2 -24 -4 -7 -4 37 0 44 2 63 4 43 2 -21 2 -57 0 -80z m-492 13 c-3
-6 -14 -11 -23 -11 -15 1 -15 2 2 15 21 16 32 13 21 -4z m16 -24 c-10 -9 -11
-8 -5 6 3 10 9 15 12 12 3 -3 0 -11 -7 -18z m-60 -40 c-8 -8 -11 -7 -11 4 0 9
3 19 7 23 4 4 9 2 11 -4 3 -7 -1 -17 -7 -23z m24 -17 c-9 -18 -19 -30 -22 -27
-3 3 3 19 13 36 23 39 30 32 9 -9z m-101 -109 c-21 -20 -34 -18 -34 5 0 9 10
14 27 14 26 0 26 0 7 -19z m-13 -74 c-10 -9 -11 -8 -5 6 3 10 9 15 12 12 3 -3
0 -11 -7 -18z m-58 -52 c-3 -9 -8 -14 -10 -11 -3 3 -2 9 2 15 9 16 15 13 8 -4z
m30 0 c-3 -9 -8 -14 -10 -11 -3 3 -2 9 2 15 9 16 15 13 8 -4z m-41 -43 c3 -11
0 -19 -8 -19 -16 0 -16 0 -8 21 8 21 11 20 16 -2z m-68 -41 c-21 -20 -34 -18
-34 5 0 9 10 14 27 14 26 0 26 0 7 -19z m29 -26 c-3 -9 -8 -14 -10 -11 -3 3
-2 9 2 15 9 16 15 13 8 -4z m-83 -39 c0 -3 -4 -8 -10 -11 -5 -3 -10 -1 -10 4
0 6 5 11 10 11 6 0 10 -2 10 -4z m33 -11 c-3 -9 -8 -14 -10 -11 -3 3 -2 9 2
15 9 16 15 13 8 -4z m27 -5 c0 -5 -5 -10 -11 -10 -5 0 -7 5 -4 10 3 6 8 10 11
10 2 0 4 -4 4 -10z m-20 -28 c0 -5 -7 -17 -15 -28 -14 -18 -14 -17 -4 9 12 27
19 34 19 19z m-53 -54 c-4 19 -3 21 8 12 11 -9 12 -16 2 -31 -13 -22 -27 -25
-27 -6 0 8 -4 7 -11 -3 -8 -12 -9 -10 -4 9 5 16 4 21 -4 17 -12 -8 -15 6 -4
18 4 4 16 -3 26 -16 l19 -23 -5 23z m-17 -58 c0 -4 -13 -24 -30 -45 -16 -21
-30 -34 -30 -30 0 5 7 16 16 26 8 9 16 26 17 36 1 18 27 30 27 13z m-45 -20
c-3 -5 -10 -10 -16 -10 -5 0 -9 5 -9 10 0 6 7 10 16 10 8 0 12 -4 9 -10z m-35
-45 c0 -8 -4 -15 -10 -15 -5 0 -10 7 -10 15 0 8 5 15 10 15 6 0 10 -7 10 -15z
m-5 -45 c4 -13 -1 -33 -14 -53 -11 -18 -21 -27 -21 -20 0 6 5 15 10 18 16 10
12 28 -5 21 -8 -3 -15 -2 -15 3 0 16 13 21 27 10 17 -15 18 12 1 29 -9 9 -9
12 -1 12 7 0 15 -9 18 -20z m-81 -156 c-20 -29 -19 -29 -19 -1 0 15 6 24 17
24 16 2 16 0 2 -23z m-344 -553 c-5 -11 -15 -23 -21 -27 -6 -3 -3 5 6 20 20
30 30 35 15 7z m-66 -63 c-5 -9 -2 -9 9 1 22 17 21 9 -1 -29 -10 -16 -22 -27
-25 -23 -4 3 -7 -3 -7 -13 0 -11 -20 -50 -44 -87 -25 -37 -57 -89 -72 -115
-70 -119 -96 -154 -107 -143 -6 6 -16 11 -22 11 -5 0 -4 -4 4 -9 12 -7 12 -13
3 -24 -7 -7 -9 -16 -7 -19 3 -3 -4 -8 -16 -11 -20 -5 -21 -3 -15 34 5 30 3 39
-8 39 -8 0 -16 6 -18 13 -3 7 -26 12 -62 13 -44 0 -62 5 -79 22 l-21 22 37 0
37 0 0 80 0 80 80 0 80 0 0 80 0 80 85 0 c50 0 93 -5 105 -12 16 -10 23 -10
37 5 20 20 38 23 27 5z m-470 -443 c22 -14 25 -14 40 1 17 16 33 11 61 -23 6
-6 23 -13 39 -15 l28 -3 -36 -54 c-21 -30 -38 -69 -40 -86 -1 -17 -17 -52 -35
-79 -18 -26 -44 -66 -58 -89 -17 -30 -23 -35 -19 -17 l6 25 -11 -25 c-49 -111
-50 -114 -61 -99 -8 11 -9 10 -4 -4 9 -27 -11 -57 -32 -51 -13 5 -14 4 -4 -4
11 -7 -8 -44 -86 -168 -54 -88 -107 -174 -118 -191 -10 -18 -22 -33 -26 -33
-4 0 -8 -4 -8 -10 0 -7 750 -10 2230 -10 1632 0 2230 3 2230 11 0 6 -30 57
-67 113 -38 55 -70 105 -72 111 -2 5 -36 59 -76 120 -39 60 -81 128 -94 150
-15 25 80 -64 253 -235 l276 -275 0 -412 0 -413 -2445 0 c-1941 0 -2445 3
-2445 12 0 7 -102 115 -227 240 -125 125 -224 230 -221 233 3 3 13 -1 22 -10
21 -22 21 -7 -1 17 -14 15 -15 21 -4 27 18 11 -3 24 -27 17 -13 -4 -25 3 -41
25 -12 17 -20 33 -16 37 3 4 10 1 14 -6 4 -8 8 5 9 30 l0 43 -14 -32 c-8 -18
-19 -33 -24 -33 -6 0 -10 -8 -10 -17 0 -15 -2 -16 -9 -3 -6 8 -7 18 -4 24 4 5
-1 7 -9 3 -9 -3 -23 2 -32 12 -18 20 -21 35 -5 25 8 -4 9 0 4 15 -7 22 10 30
18 9 4 -10 6 -10 6 -1 1 6 -3 14 -8 17 -15 9 -41 -5 -41 -22 0 -21 -10 -10
-15 18 -2 12 -10 28 -16 36 -18 21 -4 28 49 25 38 -2 52 2 66 18 11 12 25 21
33 21 10 0 13 19 13 75 l0 75 80 0 80 0 0 80 0 80 80 0 80 0 0 80 0 80 80 0
80 0 0 80 0 80 80 0 80 0 0 80 0 80 64 0 65 0 3 -42 3 -43 58 -3 c51 -3 57 -1
57 17 0 11 -4 22 -9 26 -14 8 0 119 15 128 7 4 20 15 29 23 15 15 18 15 35 -1
20 -18 20 -17 20 22 0 32 5 42 25 53 14 7 25 17 25 22 0 12 8 10 34 -7z m155
-107 c-7 -13 -14 -18 -16 -11 -3 7 2 19 9 27 18 20 22 12 7 -16z m-29 -42 c0
-3 -4 -8 -10 -11 -5 -3 -10 -1 -10 4 0 6 5 11 10 11 6 0 10 -2 10 -4z m-1685
-546 c3 -5 1 -10 -4 -10 -6 0 -11 5 -11 10 0 6 2 10 4 10 3 0 8 -4 11 -10z
m80 -80 c3 -5 1 -10 -4 -10 -6 0 -11 5 -11 10 0 6 2 10 4 10 3 0 8 -4 11 -10z
m255 -81 c0 -25 -33 -22 -38 4 -2 12 3 17 17 17 15 0 21 -6 21 -21z m-160 -21
c0 -5 -7 -3 -15 6 -8 8 -15 18 -15 22 0 3 7 1 15 -6 8 -7 15 -17 15 -22z m-25
-8 c3 -5 1 -10 -4 -10 -6 0 -11 5 -11 10 0 6 2 10 4 10 3 0 8 -4 11 -10z m102
-59 c0 -13 -2 -20 -5 -15 -4 5 -15 17 -24 26 -16 15 -16 16 5 14 16 -1 23 -8
24 -25z m-22 -21 c3 -5 1 -10 -4 -10 -6 0 -11 5 -11 10 0 6 2 10 4 10 3 0 8
-4 11 -10z m89 -15 c15 -16 12 -45 -5 -45 -11 0 -12 17 -1 23 4 2 1 2 -6 0
-16 -3 -44 22 -35 31 11 11 31 7 47 -9z m-9 -65 c3 -5 1 -10 -4 -10 -6 0 -11
5 -11 10 0 6 2 10 4 10 3 0 8 -4 11 -10z m175 -172 c11 -12 20 -26 20 -31 0
-11 -50 34 -50 46 0 12 8 8 30 -15z"/>
<path d="M4995 4415 c12 -63 11 -95 -3 -95 -7 0 -10 -5 -7 -10 11 -18 33 8 28
33 -3 15 -2 18 4 9 7 -9 12 -6 21 13 16 34 15 35 -7 30 -14 -3 -23 4 -30 23
l-11 27 5 -30z m32 -47 c-3 -8 -6 -5 -6 6 -1 11 2 17 5 13 3 -3 4 -12 1 -19z"/>
<path d="M4883 4323 c9 -2 23 -2 30 0 6 3 -1 5 -18 5 -16 0 -22 -2 -12 -5z"/>
<path d="M4937 4241 c-10 -29 -16 -56 -13 -59 3 -3 6 1 6 8 0 7 7 21 16 31 9
10 14 30 12 46 -3 25 -5 22 -21 -26z"/>
<path d="M4846 4164 c-3 -8 -2 -13 3 -10 5 3 14 -1 20 -8 8 -10 9 -16 1 -21
-5 -3 -10 0 -10 7 0 9 -3 9 -10 -2 -5 -8 -10 -19 -10 -25 0 -5 5 -3 10 5 8 12
10 12 10 1 0 -11 3 -11 15 -1 8 7 15 17 15 23 0 5 8 16 18 24 15 13 15 13 -5
4 -16 -8 -25 -7 -36 4 -13 13 -16 13 -21 -1z"/>
<path d="M4600 3956 c0 -8 5 -18 10 -21 6 -3 10 3 10 14 0 12 -4 21 -10 21 -5
0 -10 -6 -10 -14z"/>
<path d="M4507 3870 c-15 -22 -16 -25 -2 -28 25 -6 32 2 25 28 l-6 24 -17 -24z"/>
<path d="M4593 3878 c-25 -33 -24 -38 7 -38 27 0 31 3 28 22 -4 26 -21 34 -35
16z"/>
<path d="M4681 3857 c-13 -21 -12 -21 5 -5 10 10 16 20 13 22 -3 3 -11 -5 -18
-17z"/>
<path d="M4663 3805 c-14 -15 -17 -35 -7 -35 8 0 33 32 34 43 0 11 -14 8 -27
-8z"/>
<path d="M4626 3741 c-4 -7 -5 -15 -2 -18 9 -9 19 4 14 18 -4 11 -6 11 -12 0z"/>
<path d="M4547 3733 c-4 -3 -7 -11 -7 -17 0 -6 5 -5 12 2 6 6 9 14 7 17 -3 3
-9 2 -12 -2z"/>
<path d="M4565 3710 c-3 -5 1 -10 9 -10 9 0 16 5 16 10 0 6 -4 10 -9 10 -6 0
-13 -4 -16 -10z"/>
<path d="M4535 3680 c-3 -5 -2 -10 4 -10 5 0 13 5 16 10 3 6 2 10 -4 10 -5 0
-13 -4 -16 -10z"/>
<path d="M4500 3635 c-7 -9 -8 -15 -2 -15 5 0 12 7 16 15 3 8 4 15 2 15 -2 0
-9 -7 -16 -15z"/>
<path d="M4267 3620 c-16 -22 -16 -25 -1 -28 21 -5 26 2 22 30 l-3 23 -18 -25z"/>
<path d="M4400 3510 c0 -5 5 -10 10 -10 6 0 10 5 10 10 0 6 -4 10 -10 10 -5 0
-10 -4 -10 -10z"/>
<path d="M4474 3487 c-16 -19 -45 -80 -39 -85 2 -2 10 8 17 24 7 16 18 35 25
42 7 7 13 18 13 23 0 12 -3 11 -16 -4z"/>
<path d="M4110 3445 c-10 -12 -10 -15 4 -15 9 0 16 7 16 15 0 8 -2 15 -4 15
-2 0 -9 -7 -16 -15z"/>
<path d="M4390 3360 c0 -5 5 -10 11 -10 5 0 7 5 4 10 -3 6 -8 10 -11 10 -2 0
-4 -4 -4 -10z"/>
<path d="M4366 3317 c3 -10 9 -15 12 -12 3 3 0 11 -7 18 -10 9 -11 8 -5 -6z"/>
<path d="M4335 3265 c-24 -25 -36 -63 -15 -50 6 3 10 11 10 17 0 7 10 22 22
35 29 31 15 29 -17 -2z"/>
<path d="M4045 3110 c-3 -5 -1 -10 4 -10 6 0 11 5 11 10 0 6 -2 10 -4 10 -3 0
-8 -4 -11 -10z"/>
<path d="M4078 3113 c6 -2 18 -2 25 0 6 3 1 5 -13 5 -14 0 -19 -2 -12 -5z"/>
<path d="M4148 3113 c17 -2 47 -2 65 0 17 2 3 4 -33 4 -36 0 -50 -2 -32 -4z"/>
<path d="M3930 3070 c0 -5 5 -10 10 -10 6 0 10 5 10 10 0 6 -4 10 -10 10 -5 0
-10 -4 -10 -10z"/>
<path d="M3530 2970 c0 -5 7 -10 15 -10 8 0 15 5 15 10 0 6 -7 10 -15 10 -8 0
-15 -4 -15 -10z"/>
<path d="M3680 2690 c0 -5 5 -10 11 -10 5 0 7 5 4 10 -3 6 -8 10 -11 10 -2 0
-4 -4 -4 -10z"/>
<path d="M3755 2610 c3 -5 11 -10 16 -10 6 0 7 5 4 10 -3 6 -11 10 -16 10 -6
0 -7 -4 -4 -10z"/>
<path d="M3920 2450 c0 -5 5 -10 11 -10 5 0 7 5 4 10 -3 6 -8 10 -11 10 -2 0
-4 -4 -4 -10z"/>
</g>
</svg>
